<svg xmlns="http://www.w3.org/2000/svg" xmlns:xlink="http://www.w3.org/1999/xlink" width="500" zoomAndPan="magnify" viewBox="0 0 375 374.999991" height="500" preserveAspectRatio="xMidYMid meet" version="1.0"><path fill="#e7e7e7" d="M 366.652344 222.097656 C 366.652344 223.453125 366.621094 224.804688 366.554688 226.15625 C 366.488281 227.507812 366.386719 228.859375 366.253906 230.207031 C 366.121094 231.550781 365.957031 232.894531 365.757812 234.234375 C 365.558594 235.574219 365.328125 236.90625 365.0625 238.234375 C 364.800781 239.5625 364.503906 240.882812 364.175781 242.195312 C 363.84375 243.507812 363.484375 244.8125 363.09375 246.105469 C 362.699219 247.402344 362.273438 248.6875 361.820312 249.960938 C 361.363281 251.234375 360.875 252.5 360.359375 253.75 C 359.839844 255 359.292969 256.238281 358.710938 257.460938 C 358.132812 258.683594 357.523438 259.890625 356.886719 261.085938 C 356.25 262.28125 355.582031 263.457031 354.886719 264.617188 C 354.191406 265.777344 353.464844 266.921875 352.714844 268.046875 C 351.960938 269.171875 351.183594 270.28125 350.378906 271.367188 C 349.570312 272.453125 348.738281 273.519531 347.878906 274.566406 C 347.019531 275.613281 346.136719 276.636719 345.226562 277.640625 C 344.320312 278.644531 343.386719 279.625 342.429688 280.582031 C 341.472656 281.539062 340.492188 282.472656 339.488281 283.378906 C 338.484375 284.289062 337.460938 285.171875 336.414062 286.03125 C 335.367188 286.890625 334.300781 287.722656 333.214844 288.527344 C 332.128906 289.335938 331.023438 290.113281 329.894531 290.867188 C 328.769531 291.617188 327.628906 292.34375 326.464844 293.039062 C 325.304688 293.734375 324.128906 294.402344 322.933594 295.039062 C 321.742188 295.675781 320.53125 296.285156 319.308594 296.863281 C 318.085938 297.441406 316.847656 297.992188 315.597656 298.507812 C 314.347656 299.027344 313.085938 299.515625 311.808594 299.96875 C 310.535156 300.425781 309.25 300.851562 307.957031 301.242188 C 306.660156 301.636719 305.355469 301.996094 304.042969 302.324219 C 302.730469 302.65625 301.410156 302.953125 300.082031 303.214844 C 298.753906 303.480469 297.421875 303.710938 296.082031 303.910156 C 294.742188 304.109375 293.402344 304.273438 292.054688 304.40625 C 290.707031 304.539062 289.355469 304.640625 288.003906 304.707031 C 286.652344 304.773438 285.300781 304.804688 283.945312 304.804688 L 124.617188 304.804688 C 122.066406 304.808594 119.515625 304.726562 116.964844 304.566406 C 114.417969 304.402344 111.878906 304.15625 109.347656 303.828125 C 106.8125 303.496094 104.296875 303.085938 101.789062 302.59375 C 99.285156 302.101562 96.796875 301.527344 94.328125 300.871094 C 91.863281 300.214844 89.417969 299.480469 86.996094 298.664062 C 84.578125 297.851562 82.1875 296.957031 79.824219 295.988281 C 77.464844 295.015625 75.136719 293.96875 72.84375 292.847656 C 70.546875 291.726562 68.292969 290.53125 66.078125 289.261719 C 63.863281 287.992188 61.691406 286.648438 59.5625 285.238281 C 57.433594 283.828125 55.355469 282.347656 53.324219 280.800781 C 51.292969 279.257812 49.3125 277.644531 47.386719 275.96875 C 45.460938 274.292969 43.589844 272.554688 41.777344 270.757812 C 39.960938 268.960938 38.210938 267.105469 36.515625 265.195312 C 34.824219 263.28125 33.195312 261.316406 31.632812 259.296875 C 30.066406 257.28125 28.570312 255.214844 27.140625 253.097656 C 25.710938 250.980469 24.351562 248.820312 23.0625 246.617188 C 21.777344 244.414062 20.558594 242.167969 19.417969 239.886719 C 18.277344 237.601562 17.207031 235.28125 16.21875 232.929688 C 15.226562 230.574219 14.3125 228.191406 13.476562 225.78125 C 12.640625 223.367188 11.886719 220.929688 11.210938 218.46875 C 10.53125 216.003906 9.9375 213.523438 9.421875 211.023438 C 8.90625 208.523438 8.472656 206.007812 8.125 203.476562 C 7.773438 200.949219 7.503906 198.410156 7.320312 195.863281 C 7.132812 193.316406 7.03125 190.765625 7.011719 188.214844 C 6.992188 185.660156 7.058594 183.109375 7.203125 180.558594 C 7.351562 178.011719 7.582031 175.46875 7.894531 172.933594 C 8.207031 170.398438 8.605469 167.878906 9.082031 165.371094 C 9.558594 162.863281 10.117188 160.371094 10.757812 157.898438 C 11.398438 155.429688 12.117188 152.980469 12.917969 150.554688 C 13.714844 148.128906 14.59375 145.734375 15.550781 143.363281 C 16.503906 140.996094 17.535156 138.664062 18.644531 136.363281 C 19.753906 134.0625 20.933594 131.800781 22.191406 129.578125 C 23.445312 127.351562 24.773438 125.171875 26.171875 123.035156 C 27.566406 120.898438 29.035156 118.808594 30.566406 116.769531 C 32.101562 114.726562 33.699219 112.738281 35.363281 110.800781 C 37.027344 108.863281 38.753906 106.984375 40.539062 105.160156 C 42.324219 103.332031 44.167969 101.570312 46.070312 99.863281 C 47.972656 98.160156 49.925781 96.519531 51.9375 94.941406 C 53.945312 93.367188 56 91.855469 58.109375 90.414062 C 60.214844 88.972656 62.367188 87.597656 64.5625 86.296875 C 66.761719 84.992188 68.996094 83.765625 71.273438 82.609375 C 73.550781 81.453125 75.859375 80.371094 78.207031 79.363281 C 80.554688 78.359375 82.933594 77.429688 85.339844 76.578125 C 87.746094 75.730469 90.179688 74.957031 92.636719 74.265625 C 95.097656 73.574219 97.574219 72.960938 100.070312 72.429688 C 102.570312 71.902344 105.082031 71.453125 107.609375 71.085938 C 110.136719 70.71875 112.671875 70.433594 115.21875 70.234375 C 117.761719 70.03125 120.3125 69.914062 122.867188 69.878906 C 125.417969 69.84375 127.96875 69.890625 130.519531 70.023438 C 133.070312 70.15625 135.613281 70.371094 138.148438 70.667969 C 140.6875 70.964844 143.210938 71.34375 145.722656 71.804688 C 148.230469 72.265625 150.726562 72.808594 153.203125 73.433594 C 155.679688 74.058594 158.128906 74.761719 160.5625 75.546875 C 162.992188 76.332031 165.394531 77.195312 167.765625 78.136719 C 170.140625 79.078125 172.480469 80.09375 174.789062 81.1875 C 177.09375 82.28125 179.363281 83.449219 181.597656 84.691406 C 183.828125 85.933594 186.015625 87.246094 188.160156 88.628906 C 190.308594 90.015625 192.40625 91.464844 194.457031 92.988281 C 196.507812 94.507812 198.507812 96.09375 200.453125 97.746094 C 202.402344 99.398438 204.292969 101.113281 206.128906 102.886719 C 207.964844 104.660156 209.742188 106.492188 211.457031 108.382812 C 213.171875 110.277344 214.824219 112.21875 216.414062 114.21875 C 218.003906 116.21875 219.527344 118.265625 220.984375 120.363281 C 222.4375 122.460938 223.824219 124.605469 225.140625 126.792969 C 216.433594 132.363281 208.660156 139.027344 201.820312 146.78125 C 201.179688 147.484375 200.613281 148.242188 200.121094 149.058594 C 199.628906 149.875 199.21875 150.730469 198.894531 151.625 C 198.570312 152.523438 198.339844 153.441406 198.195312 154.382812 C 198.050781 155.324219 198.003906 156.269531 198.046875 157.222656 C 198.089844 158.175781 198.226562 159.113281 198.457031 160.039062 C 198.683594 160.960938 199 161.855469 199.40625 162.71875 C 199.808594 163.582031 200.292969 164.394531 200.859375 165.164062 C 201.425781 165.929688 202.058594 166.632812 202.761719 167.277344 C 203.464844 167.917969 204.226562 168.484375 205.042969 168.976562 C 205.855469 169.46875 206.710938 169.878906 207.609375 170.203125 C 208.503906 170.523438 209.421875 170.757812 210.363281 170.902344 C 211.308594 171.042969 212.253906 171.09375 213.203125 171.050781 C 214.15625 171.007812 215.09375 170.871094 216.019531 170.640625 C 216.945312 170.414062 217.839844 170.097656 218.699219 169.691406 C 219.5625 169.289062 220.378906 168.800781 221.144531 168.238281 C 221.910156 167.671875 222.617188 167.039062 223.257812 166.335938 C 227.160156 162.003906 231.480469 158.140625 236.21875 154.746094 C 240.957031 151.351562 246.003906 148.503906 251.355469 146.199219 C 256.535156 144.003906 261.878906 142.34375 267.390625 141.21875 C 272.898438 140.097656 278.46875 139.539062 284.09375 139.539062 C 285.441406 139.539062 286.792969 139.574219 288.140625 139.644531 C 289.488281 139.710938 290.835938 139.8125 292.179688 139.949219 C 293.523438 140.082031 294.863281 140.25 296.199219 140.449219 C 297.535156 140.652344 298.863281 140.882812 300.1875 141.148438 C 301.511719 141.414062 302.832031 141.710938 304.140625 142.039062 C 305.449219 142.371094 306.75 142.730469 308.042969 143.125 C 309.335938 143.519531 310.617188 143.945312 311.886719 144.398438 C 313.15625 144.855469 314.417969 145.34375 315.664062 145.859375 C 316.910156 146.378906 318.144531 146.925781 319.367188 147.503906 C 320.585938 148.085938 321.792969 148.691406 322.984375 149.328125 C 324.171875 149.964844 325.347656 150.632812 326.503906 151.328125 C 327.664062 152.023438 328.804688 152.746094 329.925781 153.496094 C 331.050781 154.246094 332.152344 155.023438 333.238281 155.828125 C 334.320312 156.636719 335.386719 157.464844 336.429688 158.324219 C 337.472656 159.179688 338.496094 160.0625 339.496094 160.96875 C 340.496094 161.875 341.472656 162.808594 342.429688 163.761719 C 343.382812 164.71875 344.316406 165.695312 345.222656 166.695312 C 346.128906 167.695312 347.011719 168.71875 347.867188 169.761719 C 348.726562 170.804688 349.554688 171.871094 350.359375 172.953125 C 351.167969 174.039062 351.945312 175.140625 352.695312 176.265625 C 353.445312 177.386719 354.167969 178.527344 354.863281 179.6875 C 355.558594 180.84375 356.222656 182.019531 356.863281 183.207031 C 357.5 184.398438 358.105469 185.605469 358.683594 186.824219 C 359.265625 188.046875 359.8125 189.28125 360.328125 190.527344 C 360.847656 191.773438 361.335938 193.035156 361.792969 194.304688 C 362.246094 195.574219 362.671875 196.855469 363.066406 198.148438 C 363.457031 199.441406 363.820312 200.742188 364.148438 202.050781 C 364.480469 203.359375 364.777344 204.679688 365.042969 206.003906 C 365.308594 207.328125 365.539062 208.65625 365.742188 209.992188 C 365.941406 211.328125 366.109375 212.667969 366.242188 214.011719 C 366.375 215.355469 366.476562 216.703125 366.546875 218.050781 C 366.617188 219.398438 366.652344 220.75 366.652344 222.097656 Z M 366.652344 222.097656 " fill-opacity="1" fill-rule="nonzero"/></svg>