<svg width="2048" height="2048" viewBox="0 0 2048 2048" fill="none" xmlns="http://www.w3.org/2000/svg">
<path d="M1171.75 303.089V303H1160.33C1160.32 303 1160.3 303 1160.29 303H210V1076.35V1745H1160.29C1160.32 1745 1160.34 1745 1160.37 1745H1171.75V1744.91C1564.74 1738.8 1881 1418.62 1881 1024C1881 629.38 1564.74 309.205 1171.75 303.089ZM916.32 1128.7V1268.73C916.32 1393.5 815.589 1494.27 690.873 1494.27C566.158 1494.27 466.625 1393.5 466.625 1268.73V1265.13V1128.7V782.866V779.268C466.625 654.502 566.158 553.731 690.873 553.731C815.589 553.731 916.32 654.502 916.32 779.268V1128.7Z" fill="#FDCE45"/>
</svg>
