<svg xmlns="http://www.w3.org/2000/svg" width="500" height="500" version="1" viewBox="0 0 375 375"><path fill="#e7e7e7" d="M366.65 222.1c0 1.35-.03 2.7-.1 4.06-.06 1.35-.16 2.7-.3 4.05a78.688 78.688 0 0 1-1.19 8.02c-.26 1.33-.56 2.65-.88 3.97-.34 1.31-.7 2.61-1.09 3.91-.39 1.29-.82 2.58-1.27 3.85-.46 1.27-.94 2.54-1.46 3.79s-1.07 2.49-1.65 3.71c-.58 1.22-1.19 2.43-1.82 3.63a94.14 94.14 0 0 1-2 3.53c-.7 1.16-1.43 2.3-2.18 3.43-.75 1.12-1.53 2.23-2.33 3.32-.81 1.08-1.64 2.15-2.5 3.2-.86 1.04-1.74 2.07-2.65 3.07-.91 1-1.84 1.98-2.8 2.94-.96.96-1.94 1.89-2.94 2.8a86.009 86.009 0 0 1-6.28 5.15c-1.08.81-2.19 1.58-3.32 2.34-1.12.75-2.26 1.47-3.43 2.17-1.16.69-2.33 1.36-3.53 2-1.19.64-2.4 1.25-3.62 1.82-1.22.58-2.46 1.13-3.71 1.65s-2.51 1.01-3.79 1.46c-1.27.46-2.56.88-3.85 1.27-1.3.4-2.6.76-3.92 1.08-1.31.34-2.63.63-3.96.89-1.33.27-2.66.5-4 .7-1.34.2-2.68.36-4.03.5-1.34.13-2.69.23-4.05.3-1.35.06-2.7.09-4.05.09H124.62c-2.55.01-5.1-.07-7.66-.23-2.54-.17-5.08-.41-7.61-.74-2.54-.33-5.05-.74-7.56-1.24-2.5-.49-4.99-1.06-7.46-1.72-2.47-.66-4.91-1.39-7.33-2.21-2.42-.81-4.81-1.7-7.18-2.67-2.36-.97-4.68-2.02-6.98-3.14-2.29-1.12-4.55-2.32-6.76-3.59-2.22-1.27-4.39-2.61-6.52-4.02a117.628 117.628 0 0 1-17.78-14.48c-1.82-1.8-3.57-3.65-5.26-5.56-1.7-1.92-3.32-3.88-4.89-5.9-1.56-2.02-3.06-4.09-4.49-6.2-1.43-2.12-2.79-4.28-4.08-6.48-1.28-2.21-2.5-4.45-3.64-6.73-1.14-2.29-2.21-4.61-3.2-6.96-.99-2.36-1.91-4.74-2.74-7.15-.84-2.41-1.59-4.85-2.27-7.31-.68-2.47-1.27-4.95-1.79-7.45-.51-2.5-.95-5.01-1.3-7.54-.35-2.53-.62-5.07-.8-7.62-.19-2.54-.29-5.09-.31-7.65-.02-2.55.05-5.1.19-7.65.15-2.55.38-5.09.69-7.63.32-2.53.72-5.05 1.19-7.56a118.55 118.55 0 0 1 3.84-14.82c.79-2.42 1.67-4.82 2.63-7.19.95-2.36 1.99-4.7 3.09-7 1.11-2.3 2.29-4.56 3.55-6.78 1.26-2.23 2.58-4.41 3.98-6.54a119.39 119.39 0 0 1 9.19-12.24c1.67-1.94 3.39-3.82 5.18-5.64 1.78-1.83 3.63-3.59 5.53-5.3 1.9-1.7 3.86-3.34 5.87-4.92 2.01-1.57 4.06-3.08 6.17-4.53a118.376 118.376 0 0 1 20.1-11.05c2.34-1 4.72-1.93 7.13-2.78 2.41-.85 4.84-1.62 7.3-2.31 2.46-.7 4.93-1.31 7.43-1.84s5.01-.98 7.54-1.34a114.249 114.249 0 0 1 15.26-1.21c2.55-.04 5.1.01 7.65.14 2.55.14 5.09.35 7.63.65 2.54.29 5.06.67 7.57 1.13 2.51.47 5.01 1.01 7.48 1.63 2.48.63 4.93 1.33 7.36 2.12 2.43.78 4.83 1.65 7.21 2.59 2.37.94 4.71 1.95 7.02 3.05 2.3 1.09 4.57 2.26 6.81 3.5 2.23 1.24 4.42 2.56 6.56 3.94 2.15 1.39 4.25 2.83 6.3 4.36 2.05 1.52 4.05 3.1 5.99 4.76 1.95 1.65 3.84 3.36 5.68 5.14 1.83 1.77 3.61 3.6 5.33 5.49a125.1 125.1 0 0 1 4.95 5.84c1.59 2 3.12 4.05 4.57 6.14 1.46 2.1 2.84 4.25 4.16 6.43a110.029 110.029 0 0 0-23.32 19.99c-.64.7-1.21 1.46-1.7 2.28-.49.82-.9 1.67-1.23 2.56-.32.9-.55 1.82-.69 2.76-.15.94-.2 1.89-.15 2.84.04.96.18 1.89.41 2.82.22.92.54 1.82.95 2.68.4.86.88 1.67 1.45 2.44s1.2 1.47 1.9 2.12c.7.64 1.47 1.2 2.28 1.7.82.49 1.67.9 2.57 1.22.89.32 1.81.56 2.75.7.95.14 1.89.19 2.84.15.96-.04 1.89-.18 2.82-.41.93-.23 1.82-.54 2.68-.95.86-.4 1.68-.89 2.44-1.45.77-.57 1.48-1.2 2.12-1.9 3.9-4.34 8.22-8.2 12.96-11.59 4.74-3.4 9.78-6.25 15.14-8.55a83.653 83.653 0 0 1 36.78-6.56c1.35.07 2.7.17 4.04.31 1.34.13 2.68.3 4.02.5 1.34.2 2.66.43 3.99.7 1.32.26 2.64.56 3.95.89 1.31.33 2.61.69 3.9 1.08 1.3.4 2.58.83 3.85 1.28 1.27.46 2.53.94 3.77 1.46 1.25.52 2.48 1.07 3.71 1.64 1.22.59 2.42 1.19 3.61 1.83 1.19.63 2.37 1.3 3.52 2a82.286 82.286 0 0 1 6.74 4.5c1.08.81 2.15 1.63 3.19 2.49 1.04.86 2.07 1.74 3.07 2.65 1 .91 1.97 1.84 2.93 2.79.95.96 1.89 1.94 2.79 2.94.91 1 1.79 2.02 2.65 3.06a85.27 85.27 0 0 1 2.49 3.19c.81 1.09 1.59 2.19 2.34 3.32a75.67 75.67 0 0 1 2.16 3.42c.7 1.15 1.36 2.33 2 3.52.64 1.19 1.25 2.4 1.82 3.61.59 1.23 1.13 2.46 1.65 3.71.52 1.24 1.01 2.51 1.46 3.77.46 1.27.88 2.56 1.28 3.85.39 1.29.75 2.59 1.08 3.9.33 1.31.63 2.63.89 3.95.27 1.33.5 2.66.7 3.99.2 1.34.37 2.68.5 4.02a78.422 78.422 0 0 1 .41 8.09Zm0 0"/></svg>