<svg xmlns="http://www.w3.org/2000/svg" xmlns:xlink="http://www.w3.org/1999/xlink" width="580" zoomAndPan="magnify" viewBox="0 0 434.88 95.999999" height="128" preserveAspectRatio="xMidYMid meet" version="1.2"><defs><clipPath id="dca298428c"><path d="M 0 0.0117188 L 434.761719 0.0117188 L 434.761719 95.984375 L 0 95.984375 Z M 0 0.0117188 "/></clipPath><clipPath id="49afed5767"><path d="M 0.960938 0.0117188 L 371 0.0117188 L 371 95.984375 L 0.960938 95.984375 Z M 0.960938 0.0117188 "/></clipPath><clipPath id="106220c1fb"><rect x="0" width="371" y="0" height="96"/></clipPath><clipPath id="4f47cbc957"><path d="M 372 13 L 434.761719 13 L 434.761719 95.984375 L 372 95.984375 Z M 372 13 "/></clipPath><clipPath id="7f76c566da"><rect x="0" width="63" y="0" height="83"/></clipPath><clipPath id="1a37bf2a4f"><rect x="0" width="435" y="0" height="96"/></clipPath></defs><g id="8209f657c4"><g clip-rule="nonzero" clip-path="url(#dca298428c)"><g transform="matrix(1,0,0,1,0,-0.000000000000000392)"><g clip-path="url(#1a37bf2a4f)"><g clip-rule="nonzero" clip-path="url(#49afed5767)"><g transform="matrix(1,0,0,1,0,-0.000000000000000392)"><g id="5e8b4416f0" clip-path="url(#106220c1fb)"><g style="fill:#000000;fill-opacity:1;"><g transform="translate(2.05691, 89.916399)"><path style="stroke:none" d="M 64.097656 0 L 64.097656 -82.695312 L 1.984375 -82.695312 L 1.984375 -63.726562 L 6.074219 -63.726562 L 6.074219 -18.84375 L 1.984375 -18.84375 L 1.984375 0 Z M 43.394531 -18.84375 L 22.6875 -18.84375 L 22.6875 -63.726562 L 43.394531 -63.726562 Z M 43.394531 -18.84375 "/></g></g><g style="fill:#000000;fill-opacity:1;"><g transform="translate(69.37741, 89.916399)"><path style="stroke:none" d="M 65.089844 0 L 65.089844 -18.84375 L 23.929688 -18.84375 L 23.929688 -32.484375 L 65.089844 -32.484375 L 65.089844 -50.710938 L 23.929688 -50.710938 L 23.929688 -63.726562 L 65.089844 -63.726562 L 65.089844 -82.695312 L 3.222656 -82.695312 L 3.222656 0 Z M 65.089844 0 "/></g></g><g style="fill:#000000;fill-opacity:1;"><g transform="translate(137.689756, 89.916399)"><path style="stroke:none" d="M 65.339844 0 L 65.339844 -32.484375 L 56.164062 -41.535156 L 65.339844 -50.710938 L 65.339844 -82.695312 L 3.222656 -82.695312 L 3.222656 0 Z M 44.632812 -50.710938 L 23.929688 -50.710938 L 23.929688 -63.726562 L 44.632812 -63.726562 Z M 44.632812 -18.84375 L 23.929688 -18.84375 L 23.929688 -32.484375 L 44.632812 -32.484375 Z M 44.632812 -18.84375 "/></g></g><g style="fill:#000000;fill-opacity:1;"><g transform="translate(206.250059, 89.916399)"><path style="stroke:none" d="M 65.339844 0 L 53.1875 -23.0625 L 65.339844 -23.0625 L 65.339844 -82.695312 L 3.222656 -82.695312 L 3.222656 0 L 23.929688 0 L 23.929688 -23.0625 L 32.855469 -23.0625 L 44.632812 0 Z M 44.632812 -41.90625 L 23.929688 -41.90625 L 23.929688 -63.726562 L 44.632812 -63.726562 Z M 44.632812 -41.90625 "/></g></g><g style="fill:#000000;fill-opacity:1;"><g transform="translate(274.810362, 89.916399)"><path style="stroke:none" d="M 23.929688 0 L 23.929688 -82.695312 L 3.222656 -82.695312 L 3.222656 0 Z M 23.929688 0 "/></g></g><g style="fill:#000000;fill-opacity:1;"><g transform="translate(301.961722, 89.916399)"><path style="stroke:none" d="M 64.097656 0 L 64.097656 -82.695312 L 1.984375 -82.695312 L 1.984375 -63.726562 L 6.074219 -63.726562 L 6.074219 -18.84375 L 1.984375 -18.84375 L 1.984375 0 Z M 43.394531 -18.84375 L 22.6875 -18.84375 L 22.6875 -63.726562 L 43.394531 -63.726562 Z M 43.394531 -18.84375 "/></g></g></g></g></g><g clip-rule="nonzero" clip-path="url(#4f47cbc957)"><g transform="matrix(1,0,0,1,372,13)"><g id="b19bb6b87a" clip-path="url(#7f76c566da)"><g style="fill:#000000;fill-opacity:1;"><g transform="translate(2.225878, 71.835454)"><path style="stroke:none" d="M 40.175781 0 L 40.175781 -50.847656 L 27.445312 -50.847656 L 27.445312 -11.585938 L 14.714844 -11.585938 L 14.714844 -50.847656 L 1.980469 -50.847656 L 1.980469 0 Z M 40.175781 0 "/></g></g><g style="fill:#000000;fill-opacity:1;"><g transform="translate(44.382778, 71.835454)"><path style="stroke:none" d="M 14.714844 0 L 14.714844 -50.847656 L 1.980469 -50.847656 L 1.980469 0 Z M 14.714844 0 "/></g></g></g></g></g></g></g></g></g></svg>