<svg xmlns="http://www.w3.org/2000/svg" width="580" height="128" version="1.2" viewBox="0 0 434.88 96"><defs><clipPath id="a"><path d="M0 .012h434.762v95.972H0Zm0 0"/></clipPath><clipPath id="c"><path d="M.96.012H371v95.972H.96Zm0 0"/></clipPath><clipPath id="d"><path d="M0 0h371v96H0z"/></clipPath><clipPath id="e"><path d="M372 13h62.762v82.984H372Zm0 0"/></clipPath><clipPath id="f"><path d="M0 0h63v83H0z"/></clipPath><clipPath id="b"><path d="M0 0h435v96H0z"/></clipPath></defs><g clip-path="url(#a)"><g clip-path="url(#b)"><g clip-path="url(#c)"><g clip-path="url(#d)"><g style="fill:#000;fill-opacity:1"><path d="M64.098 0v-82.695H1.984v18.968h4.09v44.883h-4.09V0ZM43.395-18.844H22.687v-44.883h20.708Zm0 0" style="stroke:none" transform="translate(2.057 89.916)"/></g><g style="fill:#000;fill-opacity:1"><path d="M65.09 0v-18.844H23.93v-13.64h41.16v-18.227H23.93v-13.016h41.16v-18.968H3.223V0Zm0 0" style="stroke:none" transform="translate(69.377 89.916)"/></g><g style="fill:#000;fill-opacity:1"><path d="M65.34 0v-32.484l-9.176-9.051 9.176-9.176v-31.984H3.223V0ZM44.633-50.71H23.93v-13.017h20.703Zm0 31.866H23.93v-13.64h20.703Zm0 0" style="stroke:none" transform="translate(137.69 89.916)"/></g><g style="fill:#000;fill-opacity:1"><path d="M65.34 0 53.187-23.063H65.34v-59.632H3.223V0H23.93v-23.063h8.925L44.633 0ZM44.633-41.906H23.93v-21.82h20.703Zm0 0" style="stroke:none" transform="translate(206.25 89.916)"/></g><g style="fill:#000;fill-opacity:1"><path d="M23.93 0v-82.695H3.223V0Zm0 0" style="stroke:none" transform="translate(274.81 89.916)"/></g><g style="fill:#000;fill-opacity:1"><path d="M64.098 0v-82.695H1.984v18.968h4.09v44.883h-4.09V0ZM43.395-18.844H22.687v-44.883h20.708Zm0 0" style="stroke:none" transform="translate(301.962 89.916)"/></g></g></g><g clip-path="url(#e)"><g clip-path="url(#f)" transform="translate(372 13)"><g style="fill:#000;fill-opacity:1"><path d="M40.176 0v-50.848h-12.73v39.262H14.714v-39.262H1.98V0Zm0 0" style="stroke:none" transform="translate(2.226 71.835)"/></g><g style="fill:#000;fill-opacity:1"><path d="M14.715 0v-50.848H1.98V0Zm0 0" style="stroke:none" transform="translate(44.383 71.835)"/></g></g></g></g></g></svg>