<svg xmlns="http://www.w3.org/2000/svg" xmlns:xlink="http://www.w3.org/1999/xlink" width="500" zoomAndPan="magnify" viewBox="0 0 375 374.999991" height="500" preserveAspectRatio="xMidYMid meet" version="1.2"><defs><clipPath id="29156f4b1a"><rect x="0" width="375" y="0" height="141"/></clipPath><clipPath id="f3954f0f4c"><path d="M 8.976562 273.769531 L 66.023438 273.769531 L 66.023438 330.816406 L 8.976562 330.816406 Z M 8.976562 273.769531 "/></clipPath><clipPath id="a27fd495f4"><path d="M 37.5 273.769531 C 21.746094 273.769531 8.976562 286.539062 8.976562 302.292969 C 8.976562 318.046875 21.746094 330.816406 37.5 330.816406 C 53.253906 330.816406 66.023438 318.046875 66.023438 302.292969 C 66.023438 286.539062 53.253906 273.769531 37.5 273.769531 Z M 37.5 273.769531 "/></clipPath><clipPath id="4175197c47"><path d="M 0.976562 0.769531 L 58.023438 0.769531 L 58.023438 57.816406 L 0.976562 57.816406 Z M 0.976562 0.769531 "/></clipPath><clipPath id="9ac9c995a1"><path d="M 29.5 0.769531 C 13.746094 0.769531 0.976562 13.539062 0.976562 29.292969 C 0.976562 45.046875 13.746094 57.816406 29.5 57.816406 C 45.253906 57.816406 58.023438 45.046875 58.023438 29.292969 C 58.023438 13.539062 45.253906 0.769531 29.5 0.769531 Z M 29.5 0.769531 "/></clipPath><clipPath id="574a31d3f2"><rect x="0" width="59" y="0" height="58"/></clipPath></defs><g id="f4a80d80e6"><g style="fill:#ffffff;fill-opacity:1;"><g transform="translate(3.550786, 261.141283)"><path style="stroke:none" d="M 175.214844 0 L 175.214844 -226.054688 L 5.421875 -226.054688 L 5.421875 -174.199219 L 16.605469 -174.199219 L 16.605469 -51.515625 L 5.421875 -51.515625 L 5.421875 0 Z M 118.617188 -51.515625 L 62.019531 -51.515625 L 62.019531 -174.199219 L 118.617188 -174.199219 Z M 118.617188 -51.515625 "/></g></g><g style="fill:#ffffff;fill-opacity:1;"><g transform="translate(187.578581, 261.141283)"><path style="stroke:none" d="M 178.605469 0 L 178.605469 -226.054688 L 122.007812 -226.054688 L 122.007812 -51.515625 L 65.410156 -51.515625 L 65.410156 -226.054688 L 8.8125 -226.054688 L 8.8125 0 Z M 178.605469 0 "/></g></g><g transform="matrix(1,0,0,1,0,234)"><g clip-path="url(#29156f4b1a)"><g style="fill:#ffffff;fill-opacity:1;"><g transform="translate(76.639102, 0.816225)"><path style="stroke:none" d="M 0 96.4375 L 0 38.25 L 294.34375 38.25 L 294.34375 96.4375 Z M 0 96.4375 "/></g></g></g></g><g clip-rule="nonzero" clip-path="url(#f3954f0f4c)"><g clip-rule="nonzero" clip-path="url(#a27fd495f4)"><g transform="matrix(1,0,0,1,8,273)"><g clip-path="url(#574a31d3f2)"><g clip-rule="nonzero" clip-path="url(#4175197c47)"><g clip-rule="nonzero" clip-path="url(#9ac9c995a1)"><path style=" stroke:none;fill-rule:nonzero;fill:#ffffff;fill-opacity:1;" d="M 0.976562 0.769531 L 58.023438 0.769531 L 58.023438 57.816406 L 0.976562 57.816406 Z M 0.976562 0.769531 "/></g></g></g></g></g></g></g></svg>