<svg xmlns="http://www.w3.org/2000/svg" xmlns:xlink="http://www.w3.org/1999/xlink" width="500" zoomAndPan="magnify" viewBox="0 0 375 374.999991" height="500" preserveAspectRatio="xMidYMid meet" version="1.2"><defs><filter x="0%" y="0%" width="100%" filterUnits="objectBoundingBox" id="6e5b0050b9" height="100%"><feColorMatrix values="0 0 0 0 1 0 0 0 0 1 0 0 0 0 1 0 0 0 1 0" type="matrix" in="SourceGraphic"/></filter><clipPath id="5b76ccc84d"><path d="M 0.398438 0.199219 L 99 0.199219 L 99 277.640625 L 0.398438 277.640625 Z M 0.398438 0.199219 "/></clipPath><clipPath id="ec0e845325"><rect x="0" width="100" y="0" height="278"/></clipPath><clipPath id="dc7f36d3d4"><path d="M 0.398438 0.199219 L 99 0.199219 L 99 228 L 0.398438 228 Z M 0.398438 0.199219 "/></clipPath><clipPath id="7b9e82a1ce"><rect x="0" width="100" y="0" height="229"/></clipPath><clipPath id="08d8ca4a5a"><path d="M 0.359375 0.28125 L 224 0.28125 L 224 182.441406 L 0.359375 182.441406 Z M 0.359375 0.28125 "/></clipPath><clipPath id="0a11d1316f"><rect x="0" width="225" y="0" height="183"/></clipPath><clipPath id="366288322f"><path d="M 1 0.28125 L 161 0.28125 L 161 182.441406 L 1 182.441406 Z M 1 0.28125 "/></clipPath><clipPath id="cb3c5c319f"><rect x="0" width="162" y="0" height="183"/></clipPath><clipPath id="a7dfcfea88"><path d="M 0.558594 0.558594 L 257 0.558594 L 257 116.71875 L 0.558594 116.71875 Z M 0.558594 0.558594 "/></clipPath><clipPath id="a45515a622"><rect x="0" width="258" y="0" height="117"/></clipPath><clipPath id="080369ceeb"><path d="M 0.558594 1 L 235 1 L 235 56.71875 L 0.558594 56.71875 Z M 0.558594 1 "/></clipPath><clipPath id="11ed7dcb86"><rect x="0" width="236" y="0" height="57"/></clipPath><clipPath id="8cc2ca0c65"><path d="M 1 1 L 275 1 L 275 161.441406 L 1 161.441406 Z M 1 1 "/></clipPath><clipPath id="cf1b727869"><rect x="0" width="276" y="0" height="162"/></clipPath><clipPath id="d8f2e01a2e"><path d="M 1 0.199219 L 10 0.199219 L 10 316.519531 L 1 316.519531 Z M 1 0.199219 "/></clipPath><clipPath id="829ae85880"><rect x="0" width="11" y="0" height="317"/></clipPath><clipPath id="ff84416167"><path d="M 0.558594 0.800781 L 274.640625 0.800781 L 274.640625 158.960938 L 0.558594 158.960938 Z M 0.558594 0.800781 "/></clipPath><clipPath id="de41a39fea"><rect x="0" width="275" y="0" height="159"/></clipPath><clipPath id="afae601dc9"><path d="M 0.359375 0.601562 L 44 0.601562 L 44 13 L 0.359375 13 Z M 0.359375 0.601562 "/></clipPath><clipPath id="8c3d5d6786"><path d="M 74 30 L 145 30 L 145 123.480469 L 74 123.480469 Z M 74 30 "/></clipPath><clipPath id="5bdeeb03d2"><rect x="0" width="146" y="0" height="124"/></clipPath><clipPath id="045eed7f50"><path d="M 1 1 L 50 1 L 50 50.558594 L 1 50.558594 Z M 1 1 "/></clipPath><clipPath id="252fc33d5c"><rect x="0" width="51" y="0" height="51"/></clipPath><clipPath id="01bd30e92d"><path d="M 0.398438 0.0390625 L 98.800781 0.0390625 L 98.800781 216.519531 L 0.398438 216.519531 Z M 0.398438 0.0390625 "/></clipPath><clipPath id="5637b7a0e4"><rect x="0" width="99" y="0" height="217"/></clipPath><clipPath id="806f90ad98"><path d="M 1 0.28125 L 219.839844 0.28125 L 219.839844 78 L 1 78 Z M 1 0.28125 "/></clipPath><clipPath id="fa1d745a4d"><rect x="0" width="220" y="0" height="79"/></clipPath><clipPath id="f99b8c1c80"><path d="M 0.160156 0.800781 L 156.640625 0.800781 L 156.640625 164.71875 L 0.160156 164.71875 Z M 0.160156 0.800781 "/></clipPath><clipPath id="87288d8db6"><rect x="0" width="157" y="0" height="165"/></clipPath><clipPath id="2c35689a62"><path d="M 1 1 L 127.960938 1 L 127.960938 66.558594 L 1 66.558594 Z M 1 1 "/></clipPath><clipPath id="c74875d99d"><rect x="0" width="128" y="0" height="67"/></clipPath><clipPath id="8f6a0ccf14"><path d="M 1 0.121094 L 99.878906 0.121094 L 99.878906 113 L 1 113 Z M 1 0.121094 "/></clipPath><clipPath id="81ebb71c7a"><rect x="0" width="100" y="0" height="114"/></clipPath><clipPath id="f52a13b67a"><path d="M 1 0.519531 L 99.878906 0.519531 L 99.878906 113.558594 L 1 113.558594 Z M 1 0.519531 "/></clipPath><clipPath id="131a3ec7c2"><rect x="0" width="100" y="0" height="114"/></clipPath><clipPath id="21e3d95e7d"><path d="M 0.800781 258 L 15 258 L 15 272 L 0.800781 272 Z M 0.800781 258 "/></clipPath><clipPath id="91e5c6730a"><path d="M 157 280 L 165 280 L 165 286.839844 L 157 286.839844 Z M 157 280 "/></clipPath><clipPath id="047468b50c"><rect x="0" width="286" y="0" height="287"/></clipPath><clipPath id="df42eb44da"><path d="M 0.761719 0.800781 L 59.320312 0.800781 L 59.320312 70.160156 L 0.761719 70.160156 Z M 0.761719 0.800781 "/></clipPath><clipPath id="a01440450e"><rect x="0" width="60" y="0" height="71"/></clipPath><clipPath id="852f0adf4c"><rect x="0" width="60" y="0" height="71"/></clipPath><clipPath id="e5566743d4"><path d="M 0.199219 1 L 131.960938 1 L 131.960938 66.558594 L 0.199219 66.558594 Z M 0.199219 1 "/></clipPath><clipPath id="4fe453d18d"><rect x="0" width="132" y="0" height="67"/></clipPath></defs><g id="44cba8b03e"><path style=" stroke:none;fill-rule:nonzero;fill:#ffffff;fill-opacity:1;" d="M 328.851562 187.027344 L 100.804688 55.359375 L 100.804688 318.695312 Z M 328.851562 187.027344 "/><path style=" stroke:none;fill-rule:nonzero;fill:#5e17eb;fill-opacity:1;" d="M 258.285156 203.210938 L 222.09375 224.105469 L 190.382812 242.414062 L 150.097656 265.671875 C 145.105469 268.554688 139.605469 268.835938 134.8125 267.203125 C 133.855469 266.886719 132.929688 266.484375 132.042969 266.011719 C 126.714844 263.203125 122.734375 257.867188 122.144531 251.203125 C 122.09375 250.644531 122.074219 250.070312 122.074219 249.488281 L 122.074219 124.566406 C 122.074219 111.925781 134.09375 103.457031 145.46875 106.464844 C 147.039062 106.878906 148.597656 107.515625 150.105469 108.386719 C 150.105469 108.386719 150.109375 108.394531 150.121094 108.398438 L 152.824219 109.957031 L 159.152344 113.613281 L 258.289062 170.847656 C 270.75 178.035156 270.75 196.015625 258.285156 203.210938 Z M 258.285156 203.210938 "/><path style=" stroke:none;fill-rule:nonzero;fill:#545454;fill-opacity:1;" d="M 258.285156 203.210938 C 258.285156 203.210938 258.277344 203.210938 258.269531 203.214844 L 222.09375 224.109375 L 190.382812 242.414062 L 150.097656 265.671875 C 145.105469 268.558594 139.605469 268.835938 134.8125 267.207031 C 130.820312 264.195312 127.988281 259.578125 127.5 254.042969 C 127.453125 253.480469 127.425781 252.910156 127.425781 252.328125 L 127.425781 127.402344 C 127.425781 114.761719 139.449219 106.289062 150.820312 109.296875 C 151.488281 109.480469 152.15625 109.691406 152.816406 109.957031 L 159.148438 113.613281 L 258.285156 170.847656 C 270.75 178.035156 270.75 196.019531 258.285156 203.210938 Z M 258.285156 203.210938 "/><path style=" stroke:none;fill-rule:nonzero;fill:#ffffff;fill-opacity:1;" d="M 332.710938 173.894531 L 259.074219 35.386719 C 246.179688 11.128906 221.109375 -3.941406 193.65625 -3.941406 C 189.351562 -3.941406 185.011719 -3.558594 180.761719 -2.8125 L 27.910156 24.148438 L 87.5 58.589844 L 4.367188 191.617188 C -3.980469 204.980469 -7.816406 220.351562 -6.714844 236.0625 C -5.617188 251.78125 0.316406 266.464844 10.449219 278.535156 L 110.21875 397.425781 L 110.25 328.605469 L 267.015625 334.082031 C 267.878906 334.113281 268.757812 334.128906 269.621094 334.128906 C 284.878906 334.128906 299.558594 329.503906 312.074219 320.753906 C 324.617188 311.988281 334.015625 299.746094 339.25 285.363281 L 392.328125 139.515625 Z M 110.257812 302.1875 L 110.363281 71.800781 L 309.828125 187.085938 Z M 110.257812 302.1875 "/><path style=" stroke:none;fill-rule:nonzero;fill:#545454;fill-opacity:1;" d="M 250.621094 39.882812 L 328.851562 187.027344 L 328.835938 187.023438 L 55.449219 29.015625 L 65.804688 27.1875 L 182.417969 6.621094 C 209.960938 1.761719 237.492188 15.1875 250.621094 39.882812 Z M 250.621094 39.882812 "/><path style=" stroke:none;fill-rule:nonzero;fill:#5e17eb;fill-opacity:1;" d="M 374.347656 160.925781 L 369.175781 175.140625 L 330.257812 282.085938 C 320.699219 308.363281 295.296875 325.496094 267.355469 324.519531 L 100.804688 318.695312 L 100.835938 318.675781 Z M 374.347656 160.925781 "/><path style=" stroke:none;fill-rule:nonzero;fill:#000000;fill-opacity:1;" d="M 100.800781 55.367188 L 100.707031 267.136719 L 100.660156 371.148438 L 92.148438 361.011719 L 67.9375 332.152344 L 26.382812 282.636719 L 17.777344 272.378906 C -0.199219 250.960938 -2.332031 220.402344 12.484375 196.6875 L 38.308594 155.371094 Z M 100.800781 55.367188 "/><g mask="url(#361b2ab618)" transform="matrix(1,0,0,1,2,55)"><g clip-path="url(#ec0e845325)"><g clip-rule="nonzero" clip-path="url(#5b76ccc84d)"><path style=" stroke:none;fill-rule:nonzero;fill:#ffffff;fill-opacity:1;" d="M 98.800781 0.367188 L 65.9375 277.160156 L 24.382812 227.640625 L 15.777344 217.386719 C -2.199219 195.964844 -4.332031 165.410156 10.484375 141.691406 Z M 98.800781 0.367188 "/></g></g><mask id="361b2ab618"><g filter="url(#6e5b0050b9)"><rect x="0" width="375" y="0" height="374.999991" style="fill:#000000;fill-opacity:0.23;stroke:none;"/></g></mask></g><g mask="url(#77d3e2736e)" transform="matrix(1,0,0,1,2,55)"><g clip-path="url(#7b9e82a1ce)"><g clip-rule="nonzero" clip-path="url(#dc7f36d3d4)"><path style=" stroke:none;fill-rule:nonzero;fill:#ffffff;fill-opacity:1;" d="M 98.800781 0.367188 L 24.382812 227.636719 L 15.777344 217.378906 C -2.199219 195.960938 -4.332031 165.402344 10.484375 141.6875 Z M 98.800781 0.367188 "/></g></g><mask id="77d3e2736e"><g filter="url(#6e5b0050b9)"><rect x="0" width="375" y="0" height="374.999991" style="fill:#000000;fill-opacity:0.23;stroke:none;"/></g></mask></g><g mask="url(#1c35ce3193)" transform="matrix(1,0,0,1,105,5)"><g clip-path="url(#0a11d1316f)"><g clip-rule="nonzero" clip-path="url(#08d8ca4a5a)"><path style=" stroke:none;fill-rule:nonzero;fill:#ffffff;fill-opacity:1;" d="M 223.851562 182.027344 L 0.574219 15.171875 L 64.238281 3.941406 L 77.421875 1.613281 C 104.960938 -3.242188 132.492188 10.183594 145.621094 34.875 Z M 223.851562 182.027344 "/></g></g><mask id="1c35ce3193"><g filter="url(#6e5b0050b9)"><rect x="0" width="375" y="0" height="374.999991" style="fill:#000000;fill-opacity:0.23;stroke:none;"/></g></mask></g><g mask="url(#11ee5d88f4)" transform="matrix(1,0,0,1,168,5)"><g clip-path="url(#cb3c5c319f)"><g clip-rule="nonzero" clip-path="url(#366288322f)"><path style=" stroke:none;fill-rule:nonzero;fill:#ffffff;fill-opacity:1;" d="M 160.851562 182.027344 L 1.238281 3.945312 L 14.421875 1.617188 C 41.960938 -3.238281 69.492188 10.1875 82.621094 34.882812 Z M 160.851562 182.027344 "/></g></g><mask id="11ee5d88f4"><g filter="url(#6e5b0050b9)"><rect x="0" width="375" y="0" height="374.999991" style="fill:#000000;fill-opacity:0.23;stroke:none;"/></g></mask></g><g mask="url(#d7dfcce02b)" transform="matrix(1,0,0,1,100,208)"><g clip-path="url(#a45515a622)"><g clip-rule="nonzero" clip-path="url(#a7dfcfea88)"><path style=" stroke:none;fill-rule:nonzero;fill:#ffffff;fill-opacity:1;" d="M 0.800781 110.695312 L 256.9375 0.761719 L 234.832031 61.511719 L 230.25 74.09375 C 220.6875 100.371094 195.292969 117.5 167.34375 116.523438 Z M 0.800781 110.695312 "/></g></g><mask id="d7dfcce02b"><g filter="url(#6e5b0050b9)"><rect x="0" width="375" y="0" height="374.999991" style="fill:#000000;fill-opacity:0.23;stroke:none;"/></g></mask></g><g mask="url(#56f345d2bb)" transform="matrix(1,0,0,1,100,268)"><g clip-path="url(#11ed7dcb86)"><g clip-rule="nonzero" clip-path="url(#080369ceeb)"><path style=" stroke:none;fill-rule:nonzero;fill:#ffffff;fill-opacity:1;" d="M 0.800781 50.695312 L 234.832031 1.507812 L 230.25 14.089844 C 220.6875 40.363281 195.292969 57.496094 167.34375 56.519531 Z M 0.800781 50.695312 "/></g></g><mask id="56f345d2bb"><g filter="url(#6e5b0050b9)"><rect x="0" width="375" y="0" height="374.999991" style="fill:#000000;fill-opacity:0.23;stroke:none;"/></g></mask></g><g mask="url(#dfb146cebc)" transform="matrix(1,0,0,1,54,26)"><g clip-path="url(#cf1b727869)"><g clip-rule="nonzero" clip-path="url(#8cc2ca0c65)"><path style=" stroke:none;fill-rule:nonzero;fill:#ffffff;fill-opacity:1;" d="M 274.851562 161.023438 L 274.835938 161.019531 L 1.449219 3.015625 L 11.808594 1.183594 Z M 274.851562 161.023438 "/></g></g><mask id="dfb146cebc"><g filter="url(#6e5b0050b9)"><rect x="0" width="375" y="0" height="374.999991" style="fill:#000000;fill-opacity:0.46;stroke:none;"/></g></mask></g><g mask="url(#5b13c783ff)" transform="matrix(1,0,0,1,91,55)"><g clip-path="url(#829ae85880)"><g clip-rule="nonzero" clip-path="url(#d8f2e01a2e)"><path style=" stroke:none;fill-rule:nonzero;fill:#ffffff;fill-opacity:1;" d="M 9.800781 0.367188 L 9.660156 316.148438 L 1.148438 306.011719 Z M 9.800781 0.367188 "/></g></g><mask id="5b13c783ff"><g filter="url(#6e5b0050b9)"><rect x="0" width="375" y="0" height="374.999991" style="fill:#000000;fill-opacity:0.46;stroke:none;"/></g></mask></g><g mask="url(#6592dbc4cd)" transform="matrix(1,0,0,1,100,160)"><g clip-path="url(#de41a39fea)"><g clip-rule="nonzero" clip-path="url(#ff84416167)"><path style=" stroke:none;fill-rule:nonzero;fill:#ffffff;fill-opacity:1;" d="M 274.347656 0.925781 L 269.175781 15.140625 L 0.804688 158.695312 L 0.835938 158.675781 Z M 274.347656 0.925781 "/></g></g><mask id="6592dbc4cd"><g filter="url(#6e5b0050b9)"><rect x="0" width="375" y="0" height="374.999991" style="fill:#000000;fill-opacity:0.46;stroke:none;"/></g></mask></g><g mask="url(#cf94f50cd5)" transform="matrix(1,0,0,1,123,105)"><g clip-path="url(#5bdeeb03d2)"><g clip-rule="nonzero" clip-path="url(#afae601dc9)"><path style=" stroke:none;fill-rule:nonzero;fill:#ffffff;fill-opacity:1;" d="M 20.425781 9.472656 C 28.503906 9.472656 36.292969 10.683594 43.632812 12.929688 L 36.152344 8.613281 L 27.121094 3.398438 C 27.109375 3.394531 27.105469 3.386719 27.105469 3.386719 C 25.59375 2.515625 24.039062 1.878906 22.46875 1.464844 C 13.578125 -0.890625 4.296875 3.777344 0.664062 11.957031 C 6.980469 10.335938 13.601562 9.472656 20.425781 9.472656 Z M 20.425781 9.472656 "/></g><g clip-rule="nonzero" clip-path="url(#8c3d5d6786)"><path style=" stroke:none;fill-rule:nonzero;fill:#ffffff;fill-opacity:1;" d="M 135.285156 65.847656 L 74.402344 30.695312 C 89.964844 45.171875 99.707031 65.828125 99.707031 88.761719 C 99.707031 101.152344 96.863281 112.871094 91.792969 123.320312 L 99.085938 119.109375 L 135.277344 98.214844 C 147.75 91.015625 147.75 73.035156 135.285156 65.847656 Z M 135.285156 65.847656 "/></g></g><mask id="cf94f50cd5"><g filter="url(#6e5b0050b9)"><rect x="0" width="375" y="0" height="374.999991" style="fill:#000000;fill-opacity:0.23;stroke:none;"/></g></mask></g><g mask="url(#08ac28ec3a)" transform="matrix(1,0,0,1,121,218)"><g clip-path="url(#252fc33d5c)"><g clip-rule="nonzero" clip-path="url(#045eed7f50)"><path style=" stroke:none;fill-rule:nonzero;fill:#ffffff;fill-opacity:1;" d="M 1.066406 1.234375 L 1.066406 31.488281 C 1.066406 32.070312 1.09375 32.644531 1.140625 33.203125 C 2.320312 46.566406 17.144531 54.566406 29.09375 47.671875 L 49.753906 35.742188 C 28.699219 32.390625 10.886719 19.300781 1.066406 1.234375 Z M 1.066406 1.234375 "/></g></g><mask id="08ac28ec3a"><g filter="url(#6e5b0050b9)"><rect x="0" width="375" y="0" height="374.999991" style="fill:#000000;fill-opacity:0.23;stroke:none;"/></g></mask></g><g mask="url(#4ba792ab42)" transform="matrix(1,0,0,1,2,155)"><g clip-path="url(#5637b7a0e4)"><g clip-rule="nonzero" clip-path="url(#01bd30e92d)"><path style=" stroke:none;fill-rule:nonzero;fill:#ffffff;fill-opacity:1;" d="M 98.707031 112.136719 L 98.660156 216.148438 L 90.148438 206.011719 L 65.9375 177.152344 L 24.382812 127.636719 L 15.777344 117.378906 C -2.199219 95.960938 -4.332031 65.402344 10.484375 41.6875 L 36.308594 0.371094 C 27.507812 28.0625 25.59375 61.960938 47.441406 94 C 65.414062 120.367188 83.292969 121.386719 98.707031 112.136719 Z M 98.707031 112.136719 "/></g></g><mask id="4ba792ab42"><g filter="url(#6e5b0050b9)"><rect x="0" width="375" y="0" height="374.999991" style="fill:#000000;fill-opacity:0.23;stroke:none;"/></g></mask></g><g mask="url(#64ffb4089f)" transform="matrix(1,0,0,1,54,5)"><g clip-path="url(#fa1d745a4d)"><g clip-rule="nonzero" clip-path="url(#806f90ad98)"><path style=" stroke:none;fill-rule:nonzero;fill:#ffffff;fill-opacity:1;" d="M 91.503906 76.058594 L 1.449219 24.015625 L 14.480469 21.710938 L 51.574219 15.171875 L 115.238281 3.941406 L 128.421875 1.613281 C 155.960938 -3.242188 183.492188 10.183594 196.621094 34.875 L 219.492188 77.898438 C 199.90625 56.433594 171.507812 37.824219 132.839844 40.722656 C 101.015625 43.109375 91.199219 58.085938 91.503906 76.058594 Z M 91.503906 76.058594 "/></g></g><mask id="64ffb4089f"><g filter="url(#6e5b0050b9)"><rect x="0" width="375" y="0" height="374.999991" style="fill:#000000;fill-opacity:0.23;stroke:none;"/></g></mask></g><g mask="url(#223b5395a7)" transform="matrix(1,0,0,1,218,160)"><g clip-path="url(#87288d8db6)"><g clip-rule="nonzero" clip-path="url(#f99b8c1c80)"><path style=" stroke:none;fill-rule:nonzero;fill:#ffffff;fill-opacity:1;" d="M 66.25 52.894531 L 156.347656 0.925781 L 151.828125 13.359375 L 138.941406 48.753906 L 116.835938 109.507812 L 112.257812 122.089844 C 102.691406 148.363281 77.296875 165.496094 49.347656 164.519531 L 0.65625 162.8125 C 29.035156 156.585938 59.355469 141.296875 76.179688 106.355469 C 90.027344 77.601562 81.96875 61.613281 66.25 52.894531 Z M 66.25 52.894531 "/></g></g><mask id="223b5395a7"><g filter="url(#6e5b0050b9)"><rect x="0" width="375" y="0" height="374.999991" style="fill:#000000;fill-opacity:0.23;stroke:none;"/></g></mask></g><g mask="url(#019900279c)" transform="matrix(1,0,0,1,131,202)"><g clip-path="url(#c74875d99d)"><g clip-rule="nonzero" clip-path="url(#2c35689a62)"><path style=" stroke:none;fill-rule:nonzero;fill:#ffffff;fill-opacity:1;" d="M 127.285156 1.210938 L 91.09375 22.105469 L 59.382812 40.414062 L 19.097656 63.671875 C 13.105469 67.132812 6.394531 66.847656 1.042969 64.011719 Z M 127.285156 1.210938 "/></g></g><mask id="019900279c"><g filter="url(#6e5b0050b9)"><rect x="0" width="375" y="0" height="374.999991" style="fill:#000000;fill-opacity:0.32;stroke:none;"/></g></mask></g><g mask="url(#5ab1cb9ed1)" transform="matrix(1,0,0,1,131,117)"><g clip-path="url(#81ebb71c7a)"><g clip-rule="nonzero" clip-path="url(#8f6a0ccf14)"><path style=" stroke:none;fill-rule:nonzero;fill:#ffffff;fill-opacity:1;" d="M 93.003906 66.976562 L 88.734375 69.445312 L 67.574219 81.660156 L 45.285156 94.53125 L 16.972656 110.871094 C 13.464844 112.898438 9.601562 113.097656 6.230469 111.953125 C 3.421875 109.832031 1.4375 106.589844 1.09375 102.703125 C 1.058594 102.308594 1.042969 101.90625 1.042969 101.496094 L 1.042969 13.703125 C 1.042969 4.820312 9.488281 -1.136719 17.484375 0.976562 C 17.949219 1.101562 18.417969 1.253906 18.886719 1.441406 L 23.335938 4.007812 L 93.003906 44.234375 C 101.761719 49.285156 101.761719 61.921875 93.003906 66.976562 Z M 93.003906 66.976562 "/></g></g><mask id="5ab1cb9ed1"><g filter="url(#6e5b0050b9)"><rect x="0" width="375" y="0" height="374.999991" style="fill:#000000;fill-opacity:0.18;stroke:none;"/></g></mask></g><g mask="url(#9a49d369d7)" transform="matrix(1,0,0,1,131,113)"><g clip-path="url(#131a3ec7c2)"><g clip-rule="nonzero" clip-path="url(#f52a13b67a)"><path style=" stroke:none;fill-rule:nonzero;fill:#ffffff;fill-opacity:1;" d="M 93.011719 67.414062 L 67.574219 82.101562 L 45.285156 94.96875 L 16.976562 111.3125 C 13.46875 113.339844 9.601562 113.535156 6.234375 112.394531 C 3.429688 110.277344 1.4375 107.035156 1.09375 103.140625 C 1.058594 102.746094 1.042969 102.347656 1.042969 101.933594 L 1.042969 14.136719 C 1.042969 5.253906 9.492188 -0.703125 17.484375 1.410156 C 17.957031 1.535156 18.421875 1.6875 18.886719 1.875 L 23.335938 4.441406 L 93.003906 44.667969 C 101.761719 49.722656 101.761719 62.359375 93.011719 67.414062 Z M 93.011719 67.414062 "/></g></g><mask id="9a49d369d7"><g filter="url(#6e5b0050b9)"><rect x="0" width="375" y="0" height="374.999991" style="fill:#000000;fill-opacity:0.32;stroke:none;"/></g></mask></g><g mask="url(#c5420328a5)" transform="matrix(1,0,0,1,40,17)"><g clip-path="url(#047468b50c)"><path style=" stroke:none;fill-rule:nonzero;fill:#ffffff;fill-opacity:1;" d="M 49.097656 218.398438 L 49.097656 218.394531 C 49.105469 218.398438 49.105469 218.398438 49.105469 218.402344 C 49.105469 218.402344 49.105469 218.402344 49.097656 218.398438 Z M 49.097656 218.398438 "/><path style=" stroke:none;fill-rule:nonzero;fill:#ffffff;fill-opacity:1;" d="M 9.367188 154.820312 C 9.367188 155.195312 9.296875 155.554688 9.152344 155.898438 C 9.011719 156.242188 8.808594 156.546875 8.542969 156.8125 C 8.277344 157.078125 7.972656 157.28125 7.628906 157.421875 C 7.285156 157.566406 6.925781 157.636719 6.550781 157.636719 C 6.175781 157.636719 5.816406 157.566406 5.472656 157.421875 C 5.128906 157.28125 4.824219 157.078125 4.558594 156.8125 C 4.292969 156.546875 4.089844 156.242188 3.949219 155.898438 C 3.804688 155.554688 3.734375 155.195312 3.734375 154.820312 C 3.734375 154.445312 3.804688 154.085938 3.949219 153.742188 C 4.089844 153.398438 4.292969 153.09375 4.558594 152.828125 C 4.824219 152.5625 5.128906 152.359375 5.472656 152.21875 C 5.816406 152.074219 6.175781 152.003906 6.550781 152.003906 C 6.925781 152.003906 7.285156 152.074219 7.628906 152.21875 C 7.972656 152.359375 8.277344 152.5625 8.542969 152.828125 C 8.808594 153.09375 9.011719 153.398438 9.152344 153.742188 C 9.296875 154.085938 9.367188 154.445312 9.367188 154.820312 Z M 9.367188 154.820312 "/><path style=" stroke:none;fill-rule:nonzero;fill:#ffffff;fill-opacity:1;" d="M 39.097656 202.113281 C 39.097656 202.523438 39.058594 202.929688 38.980469 203.332031 C 38.898438 203.734375 38.78125 204.125 38.621094 204.503906 C 38.464844 204.882812 38.273438 205.246094 38.046875 205.585938 C 37.816406 205.925781 37.558594 206.242188 37.269531 206.53125 C 36.980469 206.820312 36.664062 207.082031 36.320312 207.308594 C 35.980469 207.535156 35.621094 207.730469 35.242188 207.886719 C 34.863281 208.042969 34.472656 208.160156 34.070312 208.242188 C 33.667969 208.320312 33.261719 208.363281 32.851562 208.363281 C 32.441406 208.363281 32.035156 208.320312 31.632812 208.242188 C 31.230469 208.160156 30.839844 208.042969 30.460938 207.886719 C 30.082031 207.730469 29.722656 207.535156 29.378906 207.308594 C 29.039062 207.082031 28.722656 206.820312 28.433594 206.53125 C 28.144531 206.242188 27.882812 205.925781 27.65625 205.585938 C 27.429688 205.246094 27.234375 204.882812 27.078125 204.503906 C 26.921875 204.125 26.804688 203.734375 26.722656 203.332031 C 26.644531 202.929688 26.601562 202.523438 26.601562 202.113281 C 26.601562 201.703125 26.644531 201.296875 26.722656 200.894531 C 26.804688 200.492188 26.921875 200.101562 27.078125 199.722656 C 27.234375 199.34375 27.429688 198.984375 27.65625 198.644531 C 27.882812 198.300781 28.144531 197.988281 28.433594 197.695312 C 28.722656 197.40625 29.039062 197.148438 29.378906 196.917969 C 29.722656 196.691406 30.082031 196.5 30.460938 196.34375 C 30.839844 196.183594 31.230469 196.066406 31.632812 195.988281 C 32.035156 195.90625 32.441406 195.867188 32.851562 195.867188 C 33.261719 195.867188 33.667969 195.90625 34.070312 195.988281 C 34.472656 196.066406 34.863281 196.183594 35.242188 196.34375 C 35.621094 196.5 35.980469 196.691406 36.320312 196.917969 C 36.664062 197.148438 36.980469 197.40625 37.269531 197.695312 C 37.558594 197.988281 37.816406 198.300781 38.046875 198.644531 C 38.273438 198.984375 38.464844 199.34375 38.621094 199.722656 C 38.78125 200.101562 38.898438 200.492188 38.980469 200.894531 C 39.058594 201.296875 39.097656 201.703125 39.097656 202.113281 Z M 39.097656 202.113281 "/><g clip-rule="nonzero" clip-path="url(#21e3d95e7d)"><path style=" stroke:none;fill-rule:nonzero;fill:#ffffff;fill-opacity:1;" d="M 14.710938 265.011719 C 14.710938 265.460938 14.667969 265.910156 14.578125 266.351562 C 14.492188 266.792969 14.359375 267.222656 14.1875 267.636719 C 14.015625 268.054688 13.804688 268.449219 13.554688 268.824219 C 13.304688 269.199219 13.019531 269.542969 12.703125 269.863281 C 12.382812 270.183594 12.035156 270.464844 11.660156 270.714844 C 11.289062 270.964844 10.890625 271.179688 10.476562 271.351562 C 10.058594 271.523438 9.628906 271.652344 9.1875 271.742188 C 8.746094 271.828125 8.300781 271.871094 7.851562 271.871094 C 7.398438 271.871094 6.953125 271.828125 6.511719 271.742188 C 6.070312 271.652344 5.640625 271.523438 5.222656 271.351562 C 4.808594 271.179688 4.414062 270.964844 4.039062 270.714844 C 3.664062 270.464844 3.316406 270.183594 3 269.863281 C 2.679688 269.542969 2.394531 269.199219 2.144531 268.824219 C 1.894531 268.449219 1.683594 268.054688 1.511719 267.636719 C 1.339844 267.222656 1.207031 266.792969 1.121094 266.351562 C 1.03125 265.910156 0.988281 265.460938 0.988281 265.011719 C 0.988281 264.5625 1.03125 264.113281 1.121094 263.671875 C 1.207031 263.230469 1.339844 262.800781 1.511719 262.386719 C 1.683594 261.96875 1.894531 261.574219 2.144531 261.199219 C 2.394531 260.824219 2.679688 260.480469 3 260.160156 C 3.316406 259.839844 3.664062 259.558594 4.039062 259.308594 C 4.414062 259.058594 4.808594 258.84375 5.222656 258.671875 C 5.640625 258.5 6.070312 258.371094 6.511719 258.28125 C 6.953125 258.195312 7.398438 258.152344 7.851562 258.152344 C 8.300781 258.152344 8.746094 258.195312 9.1875 258.28125 C 9.628906 258.371094 10.058594 258.5 10.476562 258.671875 C 10.890625 258.84375 11.289062 259.058594 11.660156 259.308594 C 12.035156 259.558594 12.382812 259.839844 12.703125 260.160156 C 13.019531 260.480469 13.304688 260.824219 13.554688 261.199219 C 13.804688 261.574219 14.015625 261.96875 14.1875 262.386719 C 14.359375 262.800781 14.492188 263.230469 14.578125 263.671875 C 14.667969 264.113281 14.710938 264.5625 14.710938 265.011719 Z M 14.710938 265.011719 "/></g><path style=" stroke:none;fill-rule:nonzero;fill:#ffffff;fill-opacity:1;" d="M 229.652344 275.070312 C 229.652344 275.492188 229.570312 275.902344 229.40625 276.292969 C 229.246094 276.6875 229.015625 277.03125 228.714844 277.332031 C 228.414062 277.632812 228.066406 277.863281 227.675781 278.027344 C 227.28125 278.191406 226.875 278.269531 226.449219 278.269531 C 226.023438 278.269531 225.617188 278.191406 225.222656 278.027344 C 224.832031 277.863281 224.484375 277.632812 224.1875 277.332031 C 223.886719 277.03125 223.652344 276.6875 223.492188 276.292969 C 223.328125 275.902344 223.246094 275.492188 223.246094 275.070312 C 223.246094 274.644531 223.328125 274.234375 223.492188 273.84375 C 223.652344 273.453125 223.886719 273.105469 224.1875 272.804688 C 224.484375 272.503906 224.832031 272.273438 225.222656 272.109375 C 225.617188 271.949219 226.023438 271.867188 226.449219 271.867188 C 226.875 271.867188 227.28125 271.949219 227.675781 272.109375 C 228.066406 272.273438 228.414062 272.503906 228.714844 272.804688 C 229.015625 273.105469 229.246094 273.453125 229.40625 273.84375 C 229.570312 274.234375 229.652344 274.644531 229.652344 275.070312 Z M 229.652344 275.070312 "/><path style=" stroke:none;fill-rule:nonzero;fill:#ffffff;fill-opacity:1;" d="M 274.867188 208.804688 C 274.867188 209.136719 274.800781 209.457031 274.675781 209.765625 C 274.546875 210.074219 274.363281 210.347656 274.128906 210.582031 C 273.894531 210.820312 273.621094 211 273.3125 211.128906 C 273.003906 211.253906 272.683594 211.320312 272.351562 211.320312 C 272.015625 211.320312 271.695312 211.253906 271.386719 211.128906 C 271.078125 211 270.808594 210.820312 270.570312 210.582031 C 270.335938 210.347656 270.152344 210.074219 270.027344 209.765625 C 269.898438 209.457031 269.835938 209.136719 269.835938 208.804688 C 269.835938 208.46875 269.898438 208.148438 270.027344 207.839844 C 270.152344 207.53125 270.335938 207.261719 270.570312 207.023438 C 270.808594 206.789062 271.078125 206.605469 271.386719 206.480469 C 271.695312 206.351562 272.015625 206.289062 272.351562 206.289062 C 272.683594 206.289062 273.003906 206.351562 273.3125 206.480469 C 273.621094 206.605469 273.894531 206.789062 274.128906 207.023438 C 274.363281 207.261719 274.546875 207.53125 274.675781 207.839844 C 274.800781 208.148438 274.867188 208.46875 274.867188 208.804688 Z M 274.867188 208.804688 "/><path style=" stroke:none;fill-rule:nonzero;fill:#ffffff;fill-opacity:1;" d="M 284.921875 267.621094 C 284.921875 268.117188 284.875 268.605469 284.777344 269.09375 C 284.683594 269.578125 284.539062 270.050781 284.347656 270.507812 C 284.160156 270.96875 283.925781 271.402344 283.652344 271.8125 C 283.375 272.226562 283.0625 272.605469 282.714844 272.957031 C 282.363281 273.308594 281.980469 273.621094 281.570312 273.894531 C 281.15625 274.171875 280.722656 274.402344 280.265625 274.59375 C 279.808594 274.78125 279.335938 274.925781 278.847656 275.023438 C 278.363281 275.121094 277.871094 275.167969 277.375 275.167969 C 276.882812 275.167969 276.390625 275.121094 275.902344 275.023438 C 275.417969 274.925781 274.945312 274.78125 274.488281 274.59375 C 274.03125 274.402344 273.597656 274.171875 273.183594 273.894531 C 272.773438 273.621094 272.390625 273.308594 272.039062 272.957031 C 271.691406 272.605469 271.375 272.226562 271.101562 271.8125 C 270.828125 271.402344 270.59375 270.96875 270.402344 270.507812 C 270.214844 270.050781 270.070312 269.578125 269.976562 269.09375 C 269.878906 268.605469 269.828125 268.117188 269.828125 267.621094 C 269.828125 267.125 269.878906 266.632812 269.976562 266.148438 C 270.070312 265.664062 270.214844 265.191406 270.402344 264.734375 C 270.59375 264.273438 270.828125 263.839844 271.101562 263.429688 C 271.375 263.015625 271.691406 262.636719 272.039062 262.285156 C 272.390625 261.933594 272.773438 261.621094 273.183594 261.347656 C 273.597656 261.070312 274.03125 260.839844 274.488281 260.648438 C 274.945312 260.457031 275.417969 260.316406 275.902344 260.21875 C 276.390625 260.121094 276.882812 260.074219 277.375 260.074219 C 277.871094 260.074219 278.363281 260.121094 278.847656 260.21875 C 279.335938 260.316406 279.808594 260.457031 280.265625 260.648438 C 280.722656 260.839844 281.15625 261.070312 281.570312 261.347656 C 281.980469 261.621094 282.363281 261.933594 282.714844 262.285156 C 283.0625 262.632812 283.375 263.015625 283.652344 263.429688 C 283.925781 263.839844 284.160156 264.273438 284.347656 264.734375 C 284.539062 265.191406 284.683594 265.664062 284.777344 266.148438 C 284.875 266.632812 284.921875 267.125 284.921875 267.621094 Z M 284.921875 267.621094 "/><g clip-rule="nonzero" clip-path="url(#91e5c6730a)"><path style=" stroke:none;fill-rule:nonzero;fill:#ffffff;fill-opacity:1;" d="M 164.253906 283.394531 C 164.253906 283.84375 164.167969 284.269531 163.996094 284.683594 C 163.828125 285.09375 163.585938 285.457031 163.269531 285.773438 C 162.953125 286.089844 162.589844 286.332031 162.179688 286.503906 C 161.765625 286.671875 161.335938 286.757812 160.890625 286.757812 C 160.445312 286.757812 160.015625 286.671875 159.605469 286.503906 C 159.191406 286.332031 158.828125 286.089844 158.511719 285.773438 C 158.199219 285.457031 157.953125 285.09375 157.785156 284.683594 C 157.613281 284.269531 157.527344 283.84375 157.527344 283.394531 C 157.527344 282.949219 157.613281 282.519531 157.785156 282.109375 C 157.953125 281.695312 158.199219 281.332031 158.511719 281.019531 C 158.828125 280.703125 159.191406 280.460938 159.605469 280.289062 C 160.015625 280.117188 160.445312 280.03125 160.890625 280.03125 C 161.335938 280.03125 161.765625 280.117188 162.179688 280.289062 C 162.589844 280.460938 162.953125 280.703125 163.269531 281.019531 C 163.585938 281.332031 163.828125 281.695312 163.996094 282.109375 C 164.167969 282.519531 164.253906 282.949219 164.253906 283.394531 Z M 164.253906 283.394531 "/></g><path style=" stroke:none;fill-rule:nonzero;fill:#ffffff;fill-opacity:1;" d="M 116.371094 4.242188 C 116.371094 4.632812 116.296875 5.003906 116.148438 5.363281 C 116 5.722656 115.789062 6.042969 115.515625 6.316406 C 115.238281 6.589844 114.921875 6.804688 114.5625 6.953125 C 114.203125 7.101562 113.828125 7.175781 113.441406 7.175781 C 113.050781 7.175781 112.679688 7.101562 112.320312 6.953125 C 111.960938 6.804688 111.644531 6.589844 111.367188 6.316406 C 111.09375 6.042969 110.882812 5.722656 110.734375 5.363281 C 110.585938 5.003906 110.507812 4.632812 110.507812 4.242188 C 110.507812 3.855469 110.585938 3.480469 110.734375 3.121094 C 110.882812 2.761719 111.09375 2.445312 111.367188 2.171875 C 111.644531 1.894531 111.960938 1.683594 112.320312 1.535156 C 112.679688 1.386719 113.050781 1.3125 113.441406 1.3125 C 113.828125 1.3125 114.203125 1.386719 114.5625 1.535156 C 114.921875 1.683594 115.238281 1.894531 115.515625 2.171875 C 115.789062 2.445312 116 2.761719 116.148438 3.121094 C 116.296875 3.480469 116.371094 3.855469 116.371094 4.242188 Z M 116.371094 4.242188 "/><path style=" stroke:none;fill-rule:nonzero;fill:#ffffff;fill-opacity:1;" d="M 181.597656 58.214844 C 181.597656 58.667969 181.511719 59.105469 181.339844 59.523438 C 181.164062 59.941406 180.917969 60.3125 180.597656 60.628906 C 180.277344 60.949219 179.910156 61.199219 179.492188 61.371094 C 179.070312 61.542969 178.636719 61.632812 178.183594 61.632812 C 177.730469 61.632812 177.296875 61.542969 176.875 61.371094 C 176.457031 61.199219 176.089844 60.949219 175.769531 60.628906 C 175.449219 60.3125 175.203125 59.941406 175.027344 59.523438 C 174.855469 59.105469 174.769531 58.667969 174.769531 58.214844 C 174.769531 57.761719 174.855469 57.328125 175.027344 56.910156 C 175.203125 56.492188 175.449219 56.121094 175.769531 55.800781 C 176.089844 55.480469 176.457031 55.234375 176.875 55.0625 C 177.296875 54.886719 177.730469 54.800781 178.183594 54.800781 C 178.636719 54.800781 179.070312 54.886719 179.492188 55.0625 C 179.910156 55.234375 180.277344 55.480469 180.597656 55.800781 C 180.917969 56.121094 181.164062 56.492188 181.339844 56.910156 C 181.511719 57.328125 181.597656 57.761719 181.597656 58.214844 Z M 181.597656 58.214844 "/><path style=" stroke:none;fill-rule:nonzero;fill:#ffffff;fill-opacity:1;" d="M 238.113281 108.585938 C 238.113281 108.753906 238.082031 108.914062 238.015625 109.066406 C 237.953125 109.222656 237.863281 109.359375 237.746094 109.476562 C 237.625 109.59375 237.492188 109.683594 237.335938 109.75 C 237.183594 109.8125 237.023438 109.84375 236.855469 109.84375 C 236.6875 109.84375 236.527344 109.8125 236.375 109.75 C 236.21875 109.683594 236.082031 109.59375 235.964844 109.476562 C 235.847656 109.359375 235.757812 109.222656 235.691406 109.066406 C 235.628906 108.914062 235.597656 108.753906 235.597656 108.585938 C 235.597656 108.421875 235.628906 108.257812 235.691406 108.105469 C 235.757812 107.953125 235.847656 107.816406 235.964844 107.699219 C 236.082031 107.578125 236.21875 107.488281 236.375 107.425781 C 236.527344 107.359375 236.6875 107.328125 236.855469 107.328125 C 237.023438 107.328125 237.183594 107.359375 237.335938 107.425781 C 237.492188 107.488281 237.625 107.578125 237.746094 107.699219 C 237.863281 107.816406 237.953125 107.953125 238.015625 108.105469 C 238.082031 108.257812 238.113281 108.421875 238.113281 108.585938 Z M 238.113281 108.585938 "/><path style=" stroke:none;fill-rule:nonzero;fill:#ffffff;fill-opacity:1;" d="M 116.867188 38.390625 C 116.867188 38.804688 116.828125 39.214844 116.746094 39.617188 C 116.664062 40.023438 116.546875 40.414062 116.386719 40.796875 C 116.230469 41.179688 116.035156 41.539062 115.808594 41.882812 C 115.578125 42.226562 115.316406 42.542969 115.027344 42.835938 C 114.734375 43.128906 114.417969 43.386719 114.074219 43.617188 C 113.730469 43.847656 113.367188 44.039062 112.988281 44.199219 C 112.605469 44.355469 112.214844 44.476562 111.808594 44.554688 C 111.402344 44.636719 110.996094 44.675781 110.582031 44.675781 C 110.167969 44.675781 109.761719 44.636719 109.355469 44.554688 C 108.953125 44.476562 108.558594 44.355469 108.175781 44.199219 C 107.796875 44.039062 107.433594 43.847656 107.089844 43.617188 C 106.75 43.386719 106.429688 43.128906 106.140625 42.835938 C 105.847656 42.542969 105.585938 42.226562 105.359375 41.882812 C 105.128906 41.539062 104.933594 41.179688 104.777344 40.796875 C 104.617188 40.414062 104.5 40.023438 104.417969 39.617188 C 104.339844 39.214844 104.296875 38.804688 104.296875 38.390625 C 104.296875 37.980469 104.339844 37.570312 104.417969 37.167969 C 104.5 36.761719 104.617188 36.367188 104.777344 35.988281 C 104.933594 35.605469 105.128906 35.242188 105.359375 34.902344 C 105.585938 34.558594 105.847656 34.242188 106.140625 33.949219 C 106.429688 33.65625 106.75 33.394531 107.089844 33.167969 C 107.433594 32.9375 107.796875 32.746094 108.175781 32.585938 C 108.558594 32.429688 108.953125 32.308594 109.355469 32.230469 C 109.761719 32.148438 110.167969 32.109375 110.582031 32.109375 C 110.996094 32.109375 111.402344 32.148438 111.808594 32.230469 C 112.214844 32.308594 112.605469 32.429688 112.988281 32.585938 C 113.367188 32.746094 113.730469 32.9375 114.074219 33.167969 C 114.417969 33.394531 114.734375 33.65625 115.027344 33.949219 C 115.316406 34.242188 115.578125 34.558594 115.808594 34.902344 C 116.035156 35.242188 116.230469 35.605469 116.386719 35.988281 C 116.546875 36.367188 116.664062 36.761719 116.746094 37.167969 C 116.828125 37.570312 116.867188 37.980469 116.867188 38.390625 Z M 116.867188 38.390625 "/><path style=" stroke:none;fill-rule:nonzero;fill:#ffffff;fill-opacity:1;" d="M 164.453125 78.246094 C 164.453125 78.714844 164.363281 79.164062 164.183594 79.597656 C 164.003906 80.027344 163.75 80.410156 163.417969 80.738281 C 163.089844 81.070312 162.707031 81.324219 162.277344 81.503906 C 161.84375 81.683594 161.394531 81.773438 160.925781 81.773438 C 160.460938 81.773438 160.011719 81.683594 159.578125 81.503906 C 159.148438 81.324219 158.765625 81.070312 158.433594 80.738281 C 158.105469 80.410156 157.851562 80.027344 157.671875 79.597656 C 157.492188 79.164062 157.402344 78.714844 157.402344 78.246094 C 157.402344 77.78125 157.492188 77.332031 157.671875 76.898438 C 157.851562 76.46875 158.105469 76.085938 158.433594 75.757812 C 158.765625 75.425781 159.148438 75.171875 159.578125 74.992188 C 160.011719 74.8125 160.460938 74.722656 160.925781 74.722656 C 161.394531 74.722656 161.84375 74.8125 162.277344 74.992188 C 162.707031 75.171875 163.089844 75.425781 163.417969 75.757812 C 163.75 76.085938 164.003906 76.46875 164.183594 76.898438 C 164.363281 77.332031 164.453125 77.78125 164.453125 78.246094 Z M 164.453125 78.246094 "/></g><mask id="c5420328a5"><g filter="url(#6e5b0050b9)"><rect x="0" width="375" y="0" height="374.999991" style="fill:#000000;fill-opacity:0.32;stroke:none;"/></g></mask></g><g mask="url(#99725b3384)" transform="matrix(1,0,0,1,131,160)"><g clip-path="url(#852f0adf4c)"><g clip-rule="nonzero" clip-path="url(#df42eb44da)"><g mask="url(#adf2bdf6c0)" transform="matrix(1,0,0,1,0.000000000000028422,0)"><g id="c019a0ceed" clip-path="url(#a01440450e)"><path style=" stroke:none;fill-rule:nonzero;fill:#ffffff;fill-opacity:1;" d="M 1.042969 1.015625 L 1.042969 58.496094 C 1.042969 58.90625 1.058594 59.308594 1.09375 59.703125 C 1.4375 63.589844 3.421875 66.832031 6.230469 68.953125 C 9.601562 70.097656 13.464844 69.898438 16.972656 67.871094 L 45.285156 51.53125 L 58.761719 43.75 C 19.851562 60.714844 4.363281 28.039062 1.042969 1.015625 Z M 1.042969 1.015625 "/></g><mask id="adf2bdf6c0"><g filter="url(#6e5b0050b9)"><rect x="0" width="60" height="71" y="0" style="fill:#000000;fill-opacity:0.32;stroke:none;"/></g></mask></g></g></g><mask id="99725b3384"><g filter="url(#6e5b0050b9)"><rect x="0" width="375" y="0" height="374.999991" style="fill:#000000;fill-opacity:0.77;stroke:none;"/></g></mask></g><g mask="url(#a7546e3e2e)" transform="matrix(1,0,0,1,127,202)"><g clip-path="url(#4fe453d18d)"><g clip-rule="nonzero" clip-path="url(#e5566743d4)"><path style=" stroke:none;fill-rule:nonzero;fill:#ffffff;fill-opacity:1;" d="M 131.269531 1.214844 L 95.09375 22.109375 L 63.382812 40.414062 L 23.097656 63.671875 C 18.105469 66.558594 12.605469 66.835938 7.8125 65.207031 C 3.820312 62.195312 0.988281 57.578125 0.5 52.042969 C 0.453125 51.480469 0.425781 50.910156 0.425781 50.328125 L 0.425781 41.242188 C 7.152344 46.121094 16.460938 50.082031 27.085938 46.804688 C 48.546875 40.183594 130 1.816406 131.269531 1.214844 Z M 131.269531 1.214844 "/></g></g><mask id="a7546e3e2e"><g filter="url(#6e5b0050b9)"><rect x="0" width="375" y="0" height="374.999991" style="fill:#000000;fill-opacity:0.32;stroke:none;"/></g></mask></g></g></svg>