<svg xmlns="http://www.w3.org/2000/svg" xmlns:xlink="http://www.w3.org/1999/xlink" width="500" zoomAndPan="magnify" viewBox="0 0 375 375" height="500" preserveAspectRatio="xMidYMid meet" version="1"><path fill="#e7e7e7" d="M 366.65 222.1 C 366.65 223.45 366.62 224.8 366.55 226.16 C 366.49 227.51 366.39 228.86 366.25 230.21 C 366.12 231.55 365.96 232.89 365.76 234.23 C 365.56 235.57 365.33 236.91 365.06 238.23 C 364.8 239.56 364.5 240.88 364.18 242.2 C 363.84 243.51 363.48 244.81 363.09 246.11 C 362.7 247.4 362.27 248.69 361.82 249.96 C 361.36 251.23 360.88 252.5 360.36 253.75 C 359.84 255 359.29 256.24 358.71 257.46 C 358.13 258.68 357.52 259.89 356.89 261.09 C 356.25 262.28 355.58 263.46 354.89 264.62 C 354.19 265.78 353.46 266.92 352.71 268.05 C 351.96 269.17 351.18 270.28 350.38 271.37 C 349.57 272.45 348.74 273.52 347.88 274.57 C 347.02 275.61 346.14 276.64 345.23 277.64 C 344.32 278.64 343.39 279.62 342.43 280.58 C 341.47 281.54 340.49 282.47 339.49 283.38 C 338.48 284.29 337.46 285.17 336.41 286.03 C 335.37 286.89 334.3 287.72 333.21 288.53 C 332.13 289.34 331.02 290.11 329.89 290.87 C 328.77 291.62 327.63 292.34 326.46 293.04 C 325.3 293.73 324.13 294.4 322.93 295.04 C 321.74 295.68 320.53 296.29 319.31 296.86 C 318.09 297.44 316.85 297.99 315.6 298.51 C 314.35 299.03 313.09 299.52 311.81 299.97 C 310.54 300.43 309.25 300.85 307.96 301.24 C 306.66 301.64 305.36 302 304.04 302.32 C 302.73 302.66 301.41 302.95 300.08 303.21 C 298.75 303.48 297.42 303.71 296.08 303.91 C 294.74 304.11 293.4 304.27 292.05 304.41 C 290.71 304.54 289.36 304.64 288 304.71 C 286.65 304.77 285.3 304.8 283.95 304.8 L 124.62 304.8 C 122.07 304.81 119.52 304.73 116.96 304.57 C 114.42 304.4 111.88 304.16 109.35 303.83 C 106.81 303.5 104.3 303.09 101.79 302.59 C 99.29 302.1 96.8 301.53 94.33 300.87 C 91.86 300.21 89.42 299.48 87 298.66 C 84.58 297.85 82.19 296.96 79.82 295.99 C 77.46 295.02 75.14 293.97 72.84 292.85 C 70.55 291.73 68.29 290.53 66.08 289.26 C 63.86 287.99 61.69 286.65 59.56 285.24 C 57.43 283.83 55.36 282.35 53.32 280.8 C 51.29 279.26 49.31 277.64 47.39 275.97 C 45.46 274.29 43.59 272.55 41.78 270.76 C 39.96 268.96 38.21 267.11 36.52 265.2 C 34.82 263.28 33.2 261.32 31.63 259.3 C 30.07 257.28 28.57 255.21 27.14 253.1 C 25.71 250.98 24.35 248.82 23.06 246.62 C 21.78 244.41 20.56 242.17 19.42 239.89 C 18.28 237.6 17.21 235.28 16.22 232.93 C 15.23 230.57 14.31 228.19 13.48 225.78 C 12.64 223.37 11.89 220.93 11.21 218.47 C 10.53 216 9.94 213.52 9.42 211.02 C 8.91 208.52 8.47 206.01 8.12 203.48 C 7.77 200.95 7.5 198.41 7.32 195.86 C 7.13 193.32 7.03 190.77 7.01 188.21 C 6.99 185.66 7.06 183.11 7.2 180.56 C 7.35 178.01 7.58 175.47 7.89 172.93 C 8.21 170.4 8.61 167.88 9.08 165.37 C 9.56 162.86 10.12 160.37 10.76 157.9 C 11.4 155.43 12.12 152.98 12.92 150.55 C 13.71 148.13 14.59 145.73 15.55 143.36 C 16.5 141 17.54 138.66 18.64 136.36 C 19.75 134.06 20.93 131.8 22.19 129.58 C 23.45 127.35 24.77 125.17 26.17 123.04 C 27.57 120.9 29.04 118.81 30.57 116.77 C 32.1 114.73 33.7 112.74 35.36 110.8 C 37.03 108.86 38.75 106.98 40.54 105.16 C 42.32 103.33 44.17 101.57 46.07 99.86 C 47.97 98.16 49.93 96.52 51.94 94.94 C 53.95 93.37 56 91.86 58.11 90.41 C 60.21 88.97 62.37 87.6 64.56 86.3 C 66.76 84.99 69 83.77 71.27 82.61 C 73.55 81.45 75.86 80.37 78.21 79.36 C 80.55 78.36 82.93 77.43 85.34 76.58 C 87.75 75.73 90.18 74.96 92.64 74.27 C 95.1 73.57 97.57 72.96 100.07 72.43 C 102.57 71.9 105.08 71.45 107.61 71.09 C 110.14 70.72 112.67 70.43 115.22 70.23 C 117.76 70.03 120.31 69.91 122.87 69.88 C 125.42 69.84 127.97 69.89 130.52 70.02 C 133.07 70.16 135.61 70.37 138.15 70.67 C 140.69 70.96 143.21 71.34 145.72 71.8 C 148.23 72.27 150.73 72.81 153.2 73.43 C 155.68 74.06 158.13 74.76 160.56 75.55 C 162.99 76.33 165.39 77.2 167.77 78.14 C 170.14 79.08 172.48 80.09 174.79 81.19 C 177.09 82.28 179.36 83.45 181.6 84.69 C 183.83 85.93 186.02 87.25 188.16 88.63 C 190.31 90.02 192.41 91.46 194.46 92.99 C 196.51 94.51 198.51 96.09 200.45 97.75 C 202.4 99.4 204.29 101.11 206.13 102.89 C 207.96 104.66 209.74 106.49 211.46 108.38 C 213.17 110.28 214.82 112.22 216.41 114.22 C 218 116.22 219.53 118.27 220.98 120.36 C 222.44 122.46 223.82 124.61 225.14 126.79 C 216.43 132.36 208.66 139.03 201.82 146.78 C 201.18 147.48 200.61 148.24 200.12 149.06 C 199.63 149.88 199.22 150.73 198.89 151.62 C 198.57 152.52 198.34 153.44 198.2 154.38 C 198.05 155.32 198 156.27 198.05 157.22 C 198.09 158.18 198.23 159.11 198.46 160.04 C 198.68 160.96 199 161.86 199.41 162.72 C 199.81 163.58 200.29 164.39 200.86 165.16 C 201.43 165.93 202.06 166.63 202.76 167.28 C 203.46 167.92 204.23 168.48 205.04 168.98 C 205.86 169.47 206.71 169.88 207.61 170.2 C 208.5 170.52 209.42 170.76 210.36 170.9 C 211.31 171.04 212.25 171.09 213.2 171.05 C 214.16 171.01 215.09 170.87 216.02 170.64 C 216.95 170.41 217.84 170.1 218.7 169.69 C 219.56 169.29 220.38 168.8 221.14 168.24 C 221.91 167.67 222.62 167.04 223.26 166.34 C 227.16 162 231.48 158.14 236.22 154.75 C 240.96 151.35 246 148.5 251.36 146.2 C 256.54 144 261.88 142.34 267.39 141.22 C 272.9 140.1 278.47 139.54 284.09 139.54 C 285.44 139.54 286.79 139.57 288.14 139.64 C 289.49 139.71 290.84 139.81 292.18 139.95 C 293.52 140.08 294.86 140.25 296.2 140.45 C 297.54 140.65 298.86 140.88 300.19 141.15 C 301.51 141.41 302.83 141.71 304.14 142.04 C 305.45 142.37 306.75 142.73 308.04 143.12 C 309.34 143.52 310.62 143.95 311.89 144.4 C 313.16 144.86 314.42 145.34 315.66 145.86 C 316.91 146.38 318.14 146.93 319.37 147.5 C 320.59 148.09 321.79 148.69 322.98 149.33 C 324.17 149.96 325.35 150.63 326.5 151.33 C 327.66 152.02 328.8 152.75 329.93 153.5 C 331.05 154.25 332.15 155.02 333.24 155.83 C 334.32 156.64 335.39 157.46 336.43 158.32 C 337.47 159.18 338.5 160.06 339.5 160.97 C 340.5 161.88 341.47 162.81 342.43 163.76 C 343.38 164.72 344.32 165.7 345.22 166.7 C 346.13 167.7 347.01 168.72 347.87 169.76 C 348.73 170.8 349.55 171.87 350.36 172.95 C 351.17 174.04 351.95 175.14 352.7 176.27 C 353.45 177.39 354.17 178.53 354.86 179.69 C 355.56 180.84 356.22 182.02 356.86 183.21 C 357.5 184.4 358.11 185.61 358.68 186.82 C 359.27 188.05 359.81 189.28 360.33 190.53 C 360.85 191.77 361.34 193.04 361.79 194.3 C 362.25 195.57 362.67 196.86 363.07 198.15 C 363.46 199.44 363.82 200.74 364.15 202.05 C 364.48 203.36 364.78 204.68 365.04 206 C 365.31 207.33 365.54 208.66 365.74 209.99 C 365.94 211.33 366.11 212.67 366.24 214.01 C 366.38 215.36 366.48 216.7 366.55 218.05 C 366.62 219.4 366.65 220.75 366.65 222.1 Z M 366.65 222.1 " fill-opacity="1" fill-rule="nonzero"/></svg>